# xmcd
#
# Track frame offsets:
#	150
#	9217
#	20277
#	28512
#	39347
#	56140
#	65325
#	88282
#	102767
#	110742
#	122125
#	132800
#	144407
#	165267
#
# Disc length: 2355 seconds
#
# Revision: 2
# Processed by: cddbd v1.5PL3 Copyright (c) Steve Scherf et al.
# Submitted via: EZCDDA 4.3.2
#
DISCID=ae09310e
DTITLE=Fats Domino - The Legent Sings
DYEAR=1900
DGENRE=
TTITLE0=Be My Guest
TTITLE1=I Wan't To Walk You Home
TTITLE2=My Toot Toot
TTITLE3=Blue Monday
TTITLE4=Shake Rattle and Roll
TTITLE5=I'm In Love Again
TTITLE6=Domino Twist
TTITLE7=Lawdy Miss Clawdy
TTITLE8=When The Saint's Go Marching In
TTITLE9=Honest Papa's Love Their Mamas Best
TTITLE10=There Goes My Heart Again
TTITLE11=Blueberry Hill
TTITLE12=Jambalaya
TTITLE13=Ain't That A Shame
EXTD=
EXTT0=
EXTT1=
EXTT2=
EXTT3=
EXTT4=
EXTT5=
EXTT6=
EXTT7=
EXTT8=
EXTT9=
EXTT10=
EXTT11=
EXTT12=
EXTT13=
PLAYORDER=
